<svg version="1.1"
    xmlns="http://www.w3.org/2000/svg"
    xmlns:xlink="http://www.w3.org/1999/xlink" width="100.7666" height="101.76577" viewBox="0,0,100.7666,101.76577">
    <g transform="translate(-189.77407,-129.10753)">
        <g data-paper-data="{&quot;isPaintingLayer&quot;:true}" fill-rule="evenodd" stroke-linecap="round" stroke-linejoin="round" style="mix-blend-mode: normal">
            <path d="M282.75292,195.14006v0.11689c-1.18098,1.65217 -1.44938,5.39552 -4.10598,5.40508c-1.60447,0.00597 -2.33691,-1.36707 -3.70756,-0.10139c-1.19887,1.10822 -2.33332,2.29874 -3.49761,3.44393h-0.46643c-1.6653,-0.53562 -3.65388,-0.56784 -5.38837,-0.8243c-1.60923,-0.23858 -3.21966,-0.42348 -4.83604,-0.60242c-3.57992,-0.39605 -7.15031,-0.84218 -10.72306,-1.28595c-6.01227,-0.74676 -12.03168,-1.44105 -18.03917,-2.22716c-6.0051,-0.78493 -12.08417,-1.00681 -17.69799,-3.46779c-1.32413,-0.58095 -2.71863,-1.19291 -3.97,-1.92058c-1.19887,-0.69666 -2.20688,-1.77743 -3.24352,-2.68762c-1.12372,-0.98654 -2.26533,-2.27369 -3.57992,-3.00256c-1.08793,-0.6036 -2.19734,-0.28271 -3.36519,-0.11332c-1.32532,0.19206 -2.60173,0.68234 -3.90082,0.334c-1.11895,-0.29943 -2.52897,-0.38294 -3.55248,-0.92809c-1.1261,-0.60122 -1.80964,-2.06612 -2.30471,-3.18387c-0.91937,-2.6442 0.32543,-4.84929 1.80011,-6.32241c0.76585,-0.70143 1.5162,-1.74165 2.56476,-1.91819c1.15831,-0.19444 2.85582,0.27317 4.01771,0.38411c1.40046,0.13243 2.40849,0.09066 3.52744,0.9591c1.89434,1.47087 3.64433,3.1278 5.54941,4.58792c1.89792,1.45655 3.90557,1.76312 6.27111,1.83828c2.9107,0.09186 4.47817,-1.0784 6.79958,-2.64111c2.06611,-1.39092 4.09168,-2.83793 6.27948,-4.03561c2.02675,-1.10942 3.83521,-2.19019 6.0743,-2.78783c1.14042,-0.30418 2.27346,-0.6564 3.43797,-0.84578c3.00637,-0.48097 6.32996,-0.0267 7.94359,0.34237c1.61362,0.36906 2.49079,0.71336 3.73499,1.07601c2.26414,0.66088 4.52232,1.34441 6.78527,2.00648c2.46336,0.72051 4.9291,1.4303 7.39365,2.14603c1.05811,0.30657 2.13412,0.70261 3.22443,0.8732c1.10343,0.17298 2.2224,-0.06321 3.32465,-0.17295c2.38702,-0.2362 4.77402,-0.48076 7.16222,-0.71457c0.5738,-0.05607 2.27846,-0.54515 2.74608,-0.03339c0.42944,0.47001 0.15865,2.8081 0.18132,3.47733c0.07515,2.25698 0.26722,4.50799 0.67638,6.73039c0.39605,2.14724 1.86572,4.1752 2.88566,6.09339z" fill="#5ea82d" stroke="#272727" stroke-width="1.2" stroke-miterlimit="10" stroke-dasharray="" stroke-dashoffset="0"/>
            <path d="M219.35385,230.15759l-2.26176,0.11571c0.40916,-1.44581 0.773,-2.46336 1.92298,-3.50715c0.87798,-0.79806 2.37986,-1.26091 3.04908,-2.17587c0.69428,-0.94837 0.99607,-2.826 1.3969,-3.96404c0.5237,-1.48279 0.87918,-3.00255 1.29789,-4.51635c0.22784,-0.82072 1.59492,-3.55845 1.23824,-4.30402c-0.34474,-0.72289 -1.79413,0.58214 -2.19376,0.80045c-2.11384,1.14996 -5.46351,2.39894 -7.78731,1.69632c-1.42911,-0.43302 -3.03357,-0.74914 -4.25152,-1.66172c-1.05213,-0.78851 -1.69274,-1.95637 -2.33333,-3.07531c-1.45773,-2.54924 -2.65898,-5.15934 -3.74693,-7.87678c-0.773,-1.93014 -2.33453,-5.04125 -4.33384,-6.00393c-1.06645,-0.51414 -2.25221,-0.04771 -3.34731,-0.65848c-1.23466,-0.68831 -1.89898,-1.79367 -2.07971,-2.9898v-0.75392c-0.00788,-0.15246 0.05414,-2.23038 1.28762,-3.0344c0.88872,-0.57975 2.10906,-1.3444 3.21131,-1.22034c1.08793,0.12168 3.02642,0.82906 3.96046,1.39688c0.91854,0.55829 1.21199,1.61759 1.64144,2.56714c2.14008,4.74062 4.60106,9.31543 7.14314,13.83417c0.96506,1.71541 2.01005,3.62883 3.99624,4.32549c1.97427,0.69308 3.88531,-0.12645 5.49931,-1.17144c0.94121,-0.60838 1.70468,-0.8744 0.60243,-1.75476c-0.64178,-0.51176 -0.94122,-0.74319 -1.34083,-1.46728c-0.56782,-1.0259 -1.11536,-1.64623 -1.12611,-2.8773c-0.00835,-1.00443 0.20874,-1.99931 0.38053,-2.98347c0.24574,-1.40643 0.51057,-2.81408 0.71576,-4.22647c0.12763,-0.8744 0.12049,-1.8001 0.57141,-2.58623c1.05213,-1.83469 2.56236,-3.54652 3.78987,-5.28339c0.81714,-1.15593 1.61639,-2.41325 2.5409,-3.48447c0.59407,-0.68711 1.24777,-0.93525 2.0339,-1.38019c2.10668,-1.19529 4.16564,-2.52419 6.22818,-3.79942c0.34474,-0.21282 0.68986,-0.37851 0.97151,-0.54218c0.65777,-0.38233 0.96912,-0.75357 0.12001,-1.68737c-0.59049,-0.61554 -1.26209,-1.14042 -1.84901,-1.76908c-0.606,-0.65014 -1.33367,-1.22869 -1.86929,-1.92415c-0.66445,-0.86247 -1.08913,-2.03272 -1.61999,-2.98466c-0.49388,-0.88633 -1.53051,-2.00887 -1.45535,-3.0622c0.05852,-0.81847 0.66388,-1.78034 1.10372,-2.62436c0.24568,-1.02131 0.01148,-1.69112 0.94332,-2.70511c0.38119,-1.62833 0.5115,-3.30006 0.58333,-4.99634c0.04653,-1.10463 0.22664,-2.33572 -0.18133,-3.37355c-0.39962,-1.01754 -1.13086,-1.87763 -1.48755,-2.93932c-0.63941,-1.90626 -0.4068,-4.11077 -0.48672,-6.09815c-0.10736,-2.67927 -0.2004,-5.35736 -0.28032,-8.03783c-0.02862,-0.98415 -0.07276,-1.93728 -0.34355,-2.8928c-0.25528,-0.89945 -1.008,-1.85378 -1.03187,-2.79259h0.2517c3.68967,3.25307 8.11298,5.81185 12.05195,8.76073c1.8335,1.37304 3.71233,2.66615 5.65439,3.87934c0.88274,0.55113 1.59492,1.15474 2.37746,1.82515c0.96387,0.82788 1.17859,0.70263 2.36076,0.35549c2.16512,-0.63582 4.37082,-0.61793 6.60157,-0.44973c0.86009,0.06441 2.8749,0.63821 3.67535,0.25767c0.65729,-0.31254 1.32651,-1.61997 1.87645,-2.17109c1.60685,-1.61042 3.31868,-3.14211 5.12354,-4.52827c0.91377,-0.70023 1.84662,-1.37783 2.77351,-2.06016c0.63939,-0.4712 1.69751,-1.69392 2.49438,-1.77742c0.32088,0.52608 -0.33522,2.37151 -0.37815,3.02164c-0.07277,1.08554 -0.02147,2.18184 -0.01551,3.26856c0.01193,2.40014 0.15508,4.87303 -0.15031,7.25886c-0.11689,0.91019 -0.23739,1.65577 -0.71932,2.356c-0.1348,0.19683 -0.49744,0.12405 -0.62747,0.39605c-0.12883,0.26841 0.29703,1.0116 0.35548,1.16428c0.78136,2.04346 1.15951,4.06543 1.14519,6.25204c-0.01791,2.89639 1.85854,-0.12287 2.32975,-1.25018c0.39366,-0.94001 0.47001,-2.09354 0.92689,-2.98942c0.39008,-0.76466 1.02353,-0.85412 1.81799,-1.15116c1.07004,-0.39962 2.19376,-0.99011 3.30318,-1.24898c1.14281,-0.26602 1.74284,0.50222 2.68524,1.15712c1.4303,0.99368 3.50476,2.05658 3.85071,3.94257v2.1365c-0.19205,1.70586 -0.39128,3.4129 -0.60122,5.11638c-0.1694,1.37662 -0.0668,3.40099 -0.59407,4.66667c-0.61674,1.48279 -1.90508,2.94769 -2.73176,4.34459c-0.83742,1.41598 -1.6522,2.8439 -2.48723,4.25987c-1.43984,2.44189 -3.7016,4.58673 -5.69137,6.59798c-1.88837,1.91104 -3.71353,3.89126 -5.58758,5.80231c-0.97341,0.9925 -1.85854,1.69631 -2.53136,2.95603c-0.68473,1.27998 -1.23108,2.67926 -1.80725,4.01174c-1.08554,2.51227 -2.87968,4.62612 -4.46983,6.83656c-0.83981,1.16667 -1.68677,2.33809 -2.50153,3.52147c-0.94478,1.37184 0.11214,1.40165 1.34323,2.02914c1.31935,0.6716 2.58623,1.44104 3.92586,2.07567c1.31577,0.62389 1.55674,1.12968 2.35957,2.31543c0.86723,1.28117 1.70704,2.58861 2.58623,3.86144c0.87678,1.26926 1.05692,1.85259 0.47717,3.34134c-0.4867,1.25018 -1.2108,2.3894 -2.11861,3.37594c-0.77896,0.84697 -1.85618,1.44939 -2.5731,2.34049c0.41512,1.01755 3.16001,0.62031 4.02248,1.13088c0.70382,0.41633 1.59015,2.45859 1.42552,3.30436c-3.1445,0 -6.27589,-0.06085 -9.4192,-0.15747c-1.60565,-0.05012 -3.20415,-0.03818 -4.8098,-0.02864c-1.348,0.00835 -3.1982,0.30657 -4.4436,-0.22547c0.674,-0.97222 1.30862,-1.9504 2.01244,-2.90115c0.73125,-0.98534 0.74676,-1.69273 0.92928,-2.87013c0.14555,-0.93763 0.60003,-1.80131 0.02386,-2.62083c-0.57258,-0.81476 -1.89553,-1.48756 -2.70313,-2.08282c-0.87321,-0.64417 -1.72613,-1.36468 -2.63036,-1.96352c-0.99488,-0.65849 -1.65576,-0.54159 -2.80692,-0.42708c-2.54567,0.25409 -5.09849,0.58334 -7.6537,0.72171c-1.00562,0.05487 -2.31305,-0.13718 -3.23518,0.38174c-0.75869,0.42705 -1.23585,1.30147 -1.80725,1.94206c-1.65217,1.85259 -3.38429,3.63479 -5.00068,5.5172c-1.16428,1.35515 -2.29277,3.89008 -4.12865,4.26466c-1.26686,0.25886 -2.66735,0.23619 -3.95807,0.35667c-0.94837,0.08829 -3.40099,0.24931 -3.40099,0.24931z" fill="#ababab" stroke="#272727" stroke-width="1.2" stroke-miterlimit="10" stroke-dasharray="" stroke-dashoffset="0"/>
            <path d="M243.26671,216.72952c-0.01621,-0.05835 0.29582,-0.27915 0.45091,-0.39128c0.99249,-0.72051 1.96354,-1.47084 2.94529,-2.20808c0.07157,-0.05367 0.14553,-0.10497 0.2195,-0.15389c0.13479,-0.09067 0.13599,-0.12167 -0.01671,-0.18967c-0.14912,-0.06562 -0.30539,-0.12049 -0.45928,-0.17535c-1.12849,-0.39962 -2.25817,-0.79806 -3.38666,-1.1953c-0.15031,-0.05249 -0.3018,-0.1014 -0.4533,-0.14792c-0.17535,-0.05367 -0.27795,-0.15866 -0.32805,-0.34594c-0.66682,-2.52181 -1.34202,-5.04124 -2.01362,-7.56184c-0.14194,-0.53323 -0.28152,-1.06646 -0.42347,-1.59969c-0.0656,-0.24693 -0.0847,-0.49745 -0.09662,-0.75154c-0.0346,-0.77418 -0.06203,-1.5472 -0.06442,-2.32259c-0.00239,-0.7086 -0.09543,-1.41359 -0.12167,-2.12219c-0.02148,-0.57618 -0.01074,-1.15235 -0.02028,-1.72852c-0.00358,-0.25886 0.16702,-0.45331 0.28272,-0.66326c0.46524,-0.83265 0.9424,-1.65813 1.41361,-2.48721c0.53323,-0.93643 1.06407,-1.87406 1.59493,-2.81288c0.44496,-0.78613 0.88989,-1.57345 1.33367,-2.36077c0.08947,-0.15985 0.10974,-0.17059 0.25886,-0.07992c0.67161,0.40679 1.34083,0.81595 2.01126,1.22393c0.20996,0.12763 0.22904,0.12526 0.32208,-0.09543c0.49506,-1.16547 0.98892,-2.33334 1.4816,-3.5c0.54755,-1.2943 1.08557,-2.59338 1.64623,-3.88291c0.46284,-1.06408 0.87875,-2.14602 1.19768,-3.25903c0.20554,-0.71732 0.70299,-1.82243 0.87954,-2.06018c0.45986,-0.81967 0.52253,-0.92367 0.45702,-1.18198c-0.08215,-0.32389 -0.40788,-0.72846 -0.68637,-1.07168c-0.33308,-0.41049 -1.35503,-1.69224 -1.45445,-1.8363c-0.11312,-0.16392 -0.30862,-0.39311 -0.24757,-0.38365c0.18975,0.02945 0.77492,0.71134 0.83674,0.77886c0.34026,0.37169 0.84394,0.97493 1.35931,1.40875c1.79725,1.61299 4.70998,2.59373 5.02682,2.69035c0.50779,0.15487 1.28784,0.31681 1.92015,0.38715c3.40871,0.37922 6.49735,-0.59722 7.72465,-1.30979c0.37572,-0.21765 0.46299,-0.52249 0.49576,-0.37666c0.03623,0.16128 -0.06099,0.29538 0.02092,0.54216c0.19457,0.58621 0.57336,0.67493 0.80478,0.86102c0.10498,0.08352 0.20876,0.1682 0.31493,0.24931c0.12407,0.09543 0.14553,0.21116 0.03818,0.33044c-0.12644,0.13957 -0.24574,0.28629 -0.36742,0.42944c-0.07157,0.0847 -0.17177,0.13122 -0.27794,0.1682c-0.88752,0.30538 -0.62867,0.13838 -1.19768,0.85055c-0.42707,0.53442 -0.89587,1.01754 -1.44581,1.42673c-0.4688,0.34952 -0.91735,0.72886 -1.37781,1.09032c-0.08947,0.07038 -0.07753,0.13481 -0.02982,0.21711c0.22427,0.39246 0.45092,0.78374 0.66922,1.17859c0.47001,0.84697 0.9591,1.68319 1.40526,2.54327c0.70859,1.36708 1.4315,2.727 2.16155,4.08333c0.12525,0.23262 0.1336,0.45689 0.10019,0.70143c-0.13957,1.02829 -0.27676,2.05658 -0.41156,3.08487c-0.08231,0.62508 -0.15983,1.25017 -0.23857,1.87525c-0.02028,0.15747 -0.09423,0.29228 -0.17775,0.4223c-1.03305,1.62237 -2.06851,3.24233 -3.10156,4.86349c-1.11537,1.75119 -2.23075,3.50358 -3.34492,5.25596c-0.23739,0.37338 -0.48073,0.7432 -0.70619,1.12253c-0.16462,0.27794 -0.43423,0.43422 -0.67162,0.62508c-1.12849,0.91019 -2.25698,1.82158 -3.3974,2.71626c-0.62508,0.49029 -1.27402,0.95075 -1.91223,1.42434c-0.71813,0.53204 -1.43627,1.06527 -2.15558,1.59611c-0.75153,0.5547 -1.51499,1.0939 -2.24982,1.66889c-0.35787,0.28032 -0.76943,0.40677 -1.1786,0.55351c-1.46847,0.52728 -2.93933,1.04738 -4.40779,1.57345c-0.30658,0.10975 -0.93905,0.33508 -0.95075,0.31253z" fill="#e1e1e1" stroke="none" stroke-width="0" stroke-miterlimit="10" stroke-dasharray="" stroke-dashoffset="0"/>
            <path d="M252.47294,174.06585c-0.53328,-0.55437 -1.10944,-0.99135 -1.5775,-1.50615c-0.51649,-0.56916 -0.95143,-1.10604 -1.32012,-1.78479c-0.18009,-0.33046 -0.45277,-0.70168 -0.52668,-1.07376c-1.52935,-2.58981 -0.48992,-8.11442 0.19599,-8.68022c0.76852,-0.70595 1.53121,-0.54299 3.76391,-0.96122c1.10029,-0.20611 3.18486,-1.10573 4.85893,-1.71764c2.88495,-0.8587 5.34959,-0.51892 7.50217,-0.13429c2.64751,0.5916 4.88459,0.76344 6.05575,1.68325c2.24207,1.74928 2.7123,4.07799 2.5338,6.37902c-0.2059,1.28027 -0.53961,2.0675 -0.83285,2.70208c-0.27981,0.68214 -1.60204,2.81388 -2.35312,3.58179c-0.53519,0.55489 -1.30056,1.19793 -1.78885,1.65242c-2.24895,2.04545 -7.54806,3.64577 -12.48916,2.04378c-1.39484,-0.45222 -2.76114,-1.15964 -4.02224,-2.18425z" fill="#e1e1e1" stroke="none" stroke-width="0" stroke-miterlimit="10" stroke-dasharray="" stroke-dashoffset="0"/>
            <path d="M261.55136,181.01363c0.04294,0.06562 0.11691,0.09067 0.17656,0.13361c0.14911,0.10378 0.15507,0.13122 0.03937,0.26483c-0.2016,0.23262 -0.40798,0.46166 -0.60719,0.69666c-0.89945,1.05454 -1.79415,2.11382 -2.69718,3.16478c-0.26959,0.31373 -0.54158,0.62151 -0.65848,1.03188c-0.08947,0.31492 -0.19206,0.62629 -0.28748,0.94002c-0.19565,0.6406 -0.39247,1.28118 -0.58333,1.92297c-0.04174,0.13957 -0.11214,0.27318 -0.1026,0.42705c0.10498,-0.00715 1.89791,-1.56987 2.70551,-2.31185c0.87083,-0.80044 1.7691,-1.57107 2.68524,-2.3214c0.06084,0.07396 0.02386,0.1181 0.01073,0.16224c-0.24694,0.82667 -0.49505,1.65337 -0.74318,2.48125c-0.36622,1.22153 -0.73125,2.44308 -1.09628,3.66461c-0.27198,0.91258 -0.55113,1.82395 -0.81356,2.7389c-0.25766,0.90064 -0.45569,1.8168 -0.64775,2.73415c-0.10498,0.50459 -0.2183,1.008 -0.32925,1.51141c-0.02029,0.09067 -0.07396,0.15985 -0.14553,0.21951c-1.04141,0.87678 -2.08281,1.75239 -3.12303,2.63036c-0.48908,0.41273 -1.17561,1.04069 -1.3851,1.25494c-0.40726,0.423 -0.81869,0.79628 -1.22297,1.22107c-0.00596,0.00633 -0.17668,0.17095 -0.27915,0.65956c-0.15138,0.62938 -0.34249,1.51546 -0.45462,1.95626c-0.17416,0.76274 -0.14673,0.78589 -0.25922,0.85292c0.06334,-0.42347 0.31649,-1.69715 0.36981,-2.27965c0.03387,-0.37314 0.06274,-0.58775 0.09329,-0.74473c0.04223,-0.26519 0.1051,-0.43781 0.17512,-0.56699c0.05045,-0.15974 2.27499,-3.17587 3.56274,-4.60928c0.27377,-0.30467 0.59431,-0.62652 0.88801,-0.95828c0.24586,-0.27782 0.45211,-0.48348 0.70108,-0.84171c0.15103,-0.21723 0.18967,-0.41871 0.22546,-0.64298c0.10379,-0.6406 0.19683,-1.28238 0.29346,-1.92415c0.12287,-0.81357 0.24455,-1.62595 0.36622,-2.4395c0.08589,-0.5726 0.17059,-1.14638 0.25767,-1.71899c0.00955,-0.06203 0.01789,-0.12645 -0.04056,-0.16103c-0.05726,-0.0334 -0.10021,0.02265 -0.14196,0.05487c-1.11656,0.86247 -2.22954,1.72971 -3.34968,2.58742c-0.35906,0.27558 -0.71216,0.55709 -1.05095,0.85652c-0.02028,0.01789 -0.03817,0.0489 -0.09066,0.0322c0.05487,-0.22188 0.10616,-0.44613 0.16702,-0.66802c0.23858,-0.86008 0.46046,-1.72494 0.77658,-2.56237c0.27676,-0.73364 0.5237,-1.47802 0.78493,-2.21762c0.3042,-0.86128 0.60839,-1.72136 0.91258,-2.58145c0.03101,-0.08828 0.06919,-0.17535 0.09305,-0.26602c0.10259,-0.39843 0.3519,-0.67758 0.66803,-0.93404c1.29669,-1.05213 2.57787,-2.12218 3.86264,-3.18744c0.08589,-0.07157 0.19325,-0.13003 0.2028,-0.26245h0.08946z" fill="#b6d597" stroke="#ffffff" stroke-width="0" stroke-miterlimit="10" stroke-dasharray="" stroke-dashoffset="0"/>
            <path d="M235.52327,179.27233c0.80616,-0.44162 -1.59455,-3.96571 -0.57772,-4.14632c0.58191,-0.10331 2.17861,0.55244 2.89818,1.02328c0.42026,0.27498 1.07815,0.56507 1.55889,0.73566c0.51414,0.18133 1.05214,0.29824 1.58059,0.43184c1.08554,0.27558 2.16754,0.57379 3.24592,0.8756c1.08317,0.30418 2.05298,0.44854 3.17551,0.49148c2.29755,0.08828 4.6094,0.17656 6.90098,0.35788c1.05334,0.08352 1.66012,0.15258 3.22563,0.11452c1.44297,-0.06614 2.02654,-0.12646 3.19818,-0.29225c5.50348,-0.5794 7.05678,-1.3388 7.22187,-1.3635c0.48838,-0.07301 -0.82072,1.96115 -1.02947,2.26057c-0.49268,0.70502 -0.97938,1.36825 -1.78458,1.71659c-0.80879,0.35072 -1.6486,0.53084 -2.50273,0.75034c-0.41155,0.10617 -0.8231,0.21233 -1.23465,0.3209c-2.96029,0.54147 -5.68629,0.44504 -8.61518,0.25646c-0.46881,-0.02147 -0.93048,-0.08709 -1.39572,-0.13598c-0.89587,-0.09543 -1.79532,-0.15985 -2.6924,-0.25409c-1.81562,-0.18967 -3.55486,-0.33998 -5.30725,-0.87679c-1.71778,-0.52607 -3.45586,-0.99609 -5.18439,-1.48756c-0.8732,-0.24812 -1.81918,-0.49946 -2.68165,-0.77861z" fill="#5ea82d" stroke="#272727" stroke-width="1.2" stroke-miterlimit="0" stroke-dasharray="116" stroke-dashoffset="-7.25"/>
            <path d="M253.99138,174.83266c0.74756,0.44643 2.2816,1.19359 3.15011,1.44666c0.1635,0.04764 -0.00312,0.14181 -0.20812,0.08717c-2.94268,-0.78427 -6.47155,-3.32996 -7.40437,-4.20855c-0.62352,-0.70253 -1.74536,-1.4807 -2.74853,-3.22727c-0.19792,-0.39586 -0.33641,-0.8376 -0.50206,-1.24876c-0.3347,-0.82825 -0.67279,-1.65566 -1.00323,-2.48647c-0.18604,-0.46636 -0.28884,-0.60824 -0.78239,-0.73906c-0.45193,-0.12232 -0.90386,-0.24465 -1.35664,-0.36868c-0.84099,-0.23191 -1.72108,-0.5904 -2.59436,-0.66345c-0.92,-0.07645 -1.88077,0.05097 -2.80587,0.05012c-0.85883,-0.00169 -1.79753,-0.079 -2.63598,0.12148c-0.48336,0.11553 -0.96078,0.25825 -1.44244,0.37973c-0.3262,0.0824 -0.78833,0.2625 -1.21307,0.21663c0,0 0.14866,-0.98372 0.18349,-1.15192c0.06116,-0.29137 0.12148,-0.5836 0.18774,-0.87497c0.11978,-0.53263 0.35821,-1.00652 0.75578,-1.37521c0.22427,-0.20898 0.78078,-0.29718 1.06893,-0.37305c0.76325,-0.20097 1.2173,-0.4081 1.86972,-0.5921c2.58157,-0.66751 4.41825,-0.55054 4.64677,-0.52505c0.5904,0.06371 0.88515,0.00134 1.47462,0.08191c2.21438,0.30267 6.24837,1.37761 8.43434,0.99285c0.18465,-0.0325 0.16575,0.07413 -0.07825,0.22069c-0.21386,0.10946 -0.97259,0.18078 -1.42823,0.71419c-1.16627,1.51895 -1.60745,4.69606 -0.74662,7.73712c0.41216,1.1831 1.7983,3.59132 5.17863,5.78599z" fill="#e1e1e1" stroke="#272727" stroke-width="0" stroke-miterlimit="10" stroke-dasharray="" stroke-dashoffset="0"/>
            <path d="M233.66008,160.59799c0,0 0.0824,-3.58655 0.0824,-3.89832c0,-0.56746 0,-1.13408 0,-1.70239c0,-0.89536 -0.2268,-1.65821 0.80533,-1.8366c1.99291,-0.34659 3.98837,-0.66855 5.98298,-1.0075c3.54239,-0.60229 7.07796,-1.2394 10.6229,-1.82131c1.83236,-0.30071 3.70379,-0.37802 5.55568,-0.49865c1.64207,-0.06626 3.48206,0.04586 5.24562,0.21832c1.88333,0.15546 3.69445,0.45362 5.5455,0.6626c0.88942,0.09939 1.81876,0.21492 2.68524,0.34914c0.86394,0.14527 1.74572,0.27185 2.40321,0.46723c0.50545,0.11978 1.33454,0.28714 1.64547,0.53348c0.28627,0.22681 0.24127,0.59889 0.27184,0.96843c0.06541,0.81551 0.11978,1.63698 0.17075,2.45333c0.05946,0.93528 0.06202,1.87568 0.06286,2.81352c0,0.47232 -0.00169,0.94634 -0.00424,1.41864c-0.00171,0.35764 0.11212,0.94804 -0.03738,1.26999c-0.3279,0.20048 -1.64036,-0.55557 -1.98866,-0.69148c-0.70339,-0.27438 -1.3456,-0.53434 -2.10165,-0.61928c-1.507,-0.16905 -3.02079,-0.29817 -4.53035,-0.44683c-2.71158,-0.2676 -5.54888,-0.66855 -8.25027,-0.09854c-2.62323,0.55303 -5.16746,1.27764 -7.83402,1.58431c-0.73567,0.08495 -1.48067,0.20558 -2.21548,0.05352c-0.66516,-0.13676 -1.32265,-0.33809 -1.98611,-0.49101c-0.70253,-0.16225 -1.41186,-0.29732 -2.11268,-0.46807c-0.62352,-0.15205 -1.23941,-0.36699 -1.88927,-0.36104c-1.31077,0.01189 -2.65892,0.25484 -3.96798,0.37123c-1.45009,0.12742 -2.7532,0.4069 -4.16166,0.77729z" fill="#575757" stroke="#272727" stroke-width="1.2" stroke-miterlimit="10" stroke-dasharray="" stroke-dashoffset="0"/>
            <g stroke="#272727" stroke-miterlimit="10" stroke-dasharray="" stroke-dashoffset="0">
                <g fill="#b6d597" stroke-width="0">
                    <path d="M250.6527,152.59126c0.31588,-0.07396 1.49914,-0.23989 2.38964,0.4248c0.22665,0.15269 0.40201,0.35668 0.52608,0.59884c0.29943,0.58334 0.55589,1.22512 0.45687,1.89195c-0.0847,0.57736 -0.72052,1.14878 -1.15474,1.50784c-0.25528,0.21115 -0.52726,0.37933 -0.83622,0.50102c-0.70036,0.40022 -1.82946,0.49995 -2.8618,0.09304c-0.20279,-0.08352 -0.41155,-0.18132 -0.57258,-0.33281c-0.1682,-0.15747 -0.29632,-0.36863 -0.39652,-0.57499c-0.27652,-0.58739 -0.28438,-1.3042 -0.14387,-1.78696c0.12169,-0.3698 0.28868,-0.72289 0.53084,-1.02352c0.32209,-0.39962 0.68222,-0.68079 1.19887,-0.96518c0.41047,-0.20745 0.48408,-0.23369 0.86343,-0.33401z"/>
                    <path d="M271.58134,155.17879c0.04174,0.49625 -0.22152,1.25769 -0.82418,1.59122c-0.49614,0.27448 -0.93631,0.28701 -1.50295,0.24168c-0.88871,-0.07157 -2.28823,-0.84399 -2.18445,-1.97246c0.04174,-0.44853 0.22903,-0.88394 0.538,-1.21318c0.32328,-0.34355 0.81356,-0.71098 1.29073,-0.76467c0.96744,-0.10975 1.90101,0.28081 2.38581,1.15474c0.19885,0.35847 0.29787,0.70108 0.29704,0.96269z"/>
                </g>
                <g fill="#272727" stroke-width="0.5">
                    <g>
                        <path d="M263.1236,173.28477c-0.25147,0.03185 -0.60813,0.07611 -0.99463,0.09663c-0.6864,0.01611 -1.3709,-0.04295 -2.00553,-0.18969c-0.60003,-0.13957 -1.30505,-0.42253 -1.79413,-0.72171c-0.964,-0.58965 -1.81324,-1.31101 -2.1043,-2.42876c-0.02265,-0.08828 -0.10736,-0.62389 0.11333,-0.45569c0.02385,0.01909 0.04402,0.23572 0.05487,0.28511c0.03305,0.15043 0.15449,0.45783 0.28415,0.64297c0.16748,0.23907 0.52024,0.69071 1.27379,1.17145c0.43076,0.27484 1.87156,1.13135 3.47614,1.19887c0.72028,0.0303 1.43747,0.02505 2.1544,-0.0668c0.38531,-0.05011 0.82943,-0.08981 1.12849,-0.14541c0.42539,-0.09054 0.512,-0.08685 1.02112,-0.26495c0.02326,0.03233 0.05427,0.1218 0.00774,0.18573c-0.17286,0.08564 -0.86164,0.34357 -1.09212,0.41191c-0.55017,0.16332 -1.00549,0.21473 -1.52334,0.28035z"/>
                    </g>
                    <g>
                        <path d="M262.64047,163.55182c0.14195,-0.01432 0.35908,0.58215 0.4378,0.71576c0.17656,0.29943 0.28749,0.538 0.32088,0.88752c0.06442,0.6561 0.07231,1.40595 -0.02146,2.06134c-0.0847,0.59169 -0.27438,1.26688 -0.52131,1.82755c-0.08947,0.20279 -0.89718,1.57594 -1.03425,1.40882c-0.10581,0.00788 0.33521,-1.03425 0.50223,-1.55077c0.17179,-0.53323 0.4354,-1.09985 0.44257,-1.6641c0.00835,-0.58929 0.05583,-1.18336 -0.04174,-1.76551c-0.19707,-1.17503 -0.27329,-1.3635 -0.27747,-1.83577c-0.00036,-0.03866 0.16772,-0.05738 0.19397,-0.08482z"/>
                        <path d="M260.45865,161.88533c0.43327,-0.04534 1.85845,-0.03936 2.2713,-0.00835c0.6728,0.0668 2.96211,0.01432 2.55043,1.03068c-0.11298,0.27877 -0.21411,0.37135 -0.36586,0.54992c-0.18669,0.21974 -0.39164,0.43063 -0.58249,0.65491c-0.39366,0.46286 -0.61792,0.71932 -1.24301,0.71932c-0.17917,0.01576 -0.56544,0.00238 -0.61554,-0.01909c-0.21353,-0.09425 -0.42705,-0.18609 -0.63939,-0.2827c-0.91974,-0.4211 -1.83827,-0.84458 -2.76039,-1.26331c-0.14315,-0.06441 -0.20042,-0.16103 -0.18848,-0.31491c0.01074,-0.14792 0.00716,-0.29704 0.00835,-0.44615c0.00239,-0.28152 0.02146,-0.30299 0.29106,-0.37814c0.41275,-0.11571 0.83146,-0.19921 1.27402,-0.24216z"/>
                    </g>
                </g>
            </g>
            <g fill="#272727" stroke="#272727" stroke-width="0.5" stroke-miterlimit="10" stroke-dasharray="" stroke-dashoffset="0">
                <path d="M260.29999,144.27323c0.06155,-0.1138 0.69546,0.07753 1.03186,0.24812c0.33283,0.1694 0.65253,0.38054 0.93644,0.62269c0.27437,0.23501 0.49746,0.50818 0.72172,0.7897c0.15627,0.19683 0.57498,0.60123 0.57617,0.86605c-0.11928,0.05727 -0.56663,-0.53084 -0.6728,-0.64298c-0.24694,-0.26005 -0.49029,-0.40679 -0.7754,-0.61435c-0.5368,-0.38889 -1.03067,-0.93762 -1.67006,-1.14878c-0.04771,-0.01551 -0.18429,-0.07037 -0.14792,-0.12047z"/>
                <path d="M258.05852,144.14676c0.66923,-0.02147 1.54135,-0.11477 1.97902,0.45689c0.52799,0.68962 0.52715,2.01375 0.3877,1.97784c-0.14195,-0.04653 -0.22546,-0.57737 -0.26244,-0.69428c-0.09663,-0.30776 -0.1682,-0.52487 -0.37695,-0.76585c-0.18371,-0.21115 -0.32686,-0.36741 -0.5893,-0.47835c-0.3352,-0.14194 -0.67757,-0.26841 -1.01636,-0.4044c-0.03936,-0.01551 -0.08469,-0.02744 -0.12168,-0.09065z"/>
                <path d="M255.48421,144.17182c0,0 0.84337,-0.04056 1.1595,0.00953c0.16343,0.02624 0.47002,0.05727 0.59646,0.18729c0.12048,0.12526 0.16224,0.43184 0.21353,0.5893c0.14077,0.42944 0.26125,0.76943 0.19444,1.22632c-0.03101,0.21591 -0.06441,0.43065 -0.09901,0.64537c-0.01671,0.10139 -0.01671,0.53322 -0.13361,0.5881c-0.13718,-0.07754 -0.0847,-0.87202 -0.10378,-1.03782c-0.03817,-0.34475 -0.14195,-0.62508 -0.27078,-0.94597c-0.10498,-0.26005 -0.15149,-0.50699 -0.39605,-0.6728c-0.30777,-0.20875 -0.7229,-0.33281 -1.06169,-0.48791c-0.03937,-0.01789 -0.08469,-0.03101 -0.09901,-0.1014z"/>
            </g>
            <g fill-opacity="0.48" fill="#000000" stroke="none" stroke-width="0" stroke-miterlimit="10" stroke-dasharray="" stroke-dashoffset="0">
                <path d="M192.19895,185.4608c0.6537,-0.93693 1.09707,-2.00173 2.26703,-2.31125c0.90226,-0.23901 2.30886,-0.24857 3.20756,-0.02988c2.12005,0.51627 4.17077,1.94317 5.81041,3.32468c1.96947,1.65875 3.86125,3.42146 5.63473,5.28578c1.4496,1.5249 3.6557,3.16453 5.83072,3.34857c2.33515,0.19836 3.69155,-1.4532 5.00732,-3.07251c1.61335,-1.9862 3.26612,-3.92938 4.92726,-5.87495c1.72687,-2.02205 3.55174,-4.00825 5.56542,-5.75305c0.80786,-0.69912 1.7221,-1.18072 2.67457,-1.65277c0.89748,-0.44457 2.03399,-1.34802 3.05816,-1.34802c0.20914,0.31191 -0.3621,0.80786 -0.24737,1.21299c0.15297,0.53777 1.3074,0.77201 1.73285,0.9202c1.38986,0.484 2.81796,0.85925 4.21619,1.32055c3.14659,1.03613 6.01117,1.30382 9.33346,1.41018c3.32467,0.10636 6.74495,0.21632 10.06603,-0.05257c1.38388,-0.11233 2.8084,-0.40632 4.04171,-1.07317c1.33131,-0.72063 1.75197,-1.80455 2.28975,-3.15498c-0.21033,-0.24738 -0.45891,0.00598 -0.68956,-0.22347c0.01196,-0.62023 0.85687,-1.19148 0.2199,-1.98261c-2.469,1.60497 -6.74495,1.4532 -9.50914,0.87718c-1.49383,-0.31191 -2.97451,-0.88793 -4.38708,-1.46277c-1.3289,-0.54018 -2.1332,-1.47471 -3.15736,-2.4212c0.78397,-1.28948 2.05551,0.15059 2.82274,0.7756c1.01938,0.83057 1.80574,1.4293 3.09879,1.70296c1.54163,0.32625 3.06056,1.0409 4.64402,1.05403c1.42213,0.01196 2.86816,-0.12787 4.22694,-0.54972c5.14236,-1.59661 10.12579,-6.45693 8.99167,-12.20281c1.2572,-0.05498 0.86284,3.36889 0.75289,4.04051c-0.294,1.7902 -0.80428,3.73935 -2.14754,5.00373c-1.02296,0.96203 -2.79287,1.99097 -3.1466,3.40593c-0.35255,1.40779 0.34058,3.66527 -0.94052,4.51018c-3.02351,1.99576 -7.45002,2.52636 -10.97308,2.48932c-4.01662,-0.04182 -8.17306,-0.07887 -12.15261,-0.64533c-3.64017,-0.51747 -8.25552,-2.66978 -11.90524,-1.31697c-1.29904,0.48162 -3.07489,1.3839 -4.0907,2.32082c-1.21896,1.12455 -2.06985,2.79764 -3.01635,4.14687c-1.00026,1.42332 -2.43913,2.86815 -2.99482,4.53169c-0.59992,1.79976 -0.57363,3.98674 -0.59155,5.86538c-0.01314,1.48905 0.0968,3.61029 1.14487,4.80417c1.19028,1.3564 3.29958,1.60617 4.93681,1.15563c2.07583,-0.57004 2.75582,-1.70775 2.84783,-3.86603c0.03943,-0.92618 -0.36091,-1.89657 -0.08365,-2.78809c0.25814,-0.83297 1.02536,-1.6958 1.62289,-2.29094c1.34207,-1.33608 3.07134,-2.48693 4.66436,-3.49795c0.86044,-0.54613 1.69339,-1.10184 2.44986,-1.79021c0.75528,-0.68716 1.4305,-1.84757 2.33517,-2.32919c0.64175,0.73138 -9.43743,8.55787 -9.8569,10.13654c-0.57363,2.15589 0.62859,5.0121 -0.46728,7.03057c-0.9429,1.73643 -3.20516,2.19653 -4.53646,3.45373c-0.81624,0.77081 -1.11739,0.90465 -1.18791,2.06507c-0.09083,1.48426 -0.00956,1.23211 -1.28231,1.92167c-2.01488,1.09229 -4.23291,2.22283 -6.52266,2.58971c-2.20489,0.35374 -4.67631,-0.35852 -6.55255,-1.5261c-0.93693,-0.58319 -1.7185,-1.3815 -2.28018,-2.33397c-0.20674,-0.35135 -1.61931,-2.76657 -1.39463,-3.10716c1.83443,1.58227 2.64349,3.25056 5.085,4.0907c2.31843,0.79829 4.03217,1.17715 6.42826,0.32387c1.48547,-0.52823 5.21167,-2.25389 5.02645,-4.21022c-0.098,-1.03134 -0.83536,-0.83656 -1.60737,-1.28829c-0.89033,-0.52105 -1.68981,-1.48666 -2.11526,-2.40566c-0.47564,-1.02537 -0.52702,-2.1308 -0.43739,-3.24221c0.05378,-0.66446 0.56406,-1.95034 0.33343,-2.5921c-0.40753,-1.13413 -3.79911,-1.54163 -4.85675,-1.87625c-1.96349,-0.62144 -4.33092,-1.66592 -6.0542,-2.79167c-0.81026,-0.52941 -1.5739,-1.23332 -2.32918,-1.83682c-0.72421,-0.57841 -1.68742,-2.06387 -2.63153,-2.20011c0.35253,1.00744 0.85805,1.88104 1.35998,2.73431c-0.27366,0.2414 -3.35575,-3.10836 -3.95926,-3.42506c-2.04356,-1.0684 -3.72859,-0.71107 -5.83788,-0.15058c-0.84969,-0.582 -3.5362,-1.97783 -4.70976,-1.41735c0,-0.58797 0,-1.17595 0,-1.76272zM204.38862,188.5596c-0.64413,-0.64175 -1.44604,-0.91544 -2.31486,-1.02179c0.66088,0.59753 1.52132,0.72303 2.31486,1.02179z"/>
                <path d="M286.48958,160.9046c-1.29307,0.75647 -3.15498,2.73192 -4.70856,2.61361c-0.83415,-0.06333 -1.89299,-0.68476 -2.67575,-1.00624c-1.15562,-0.47443 -1.33967,-1.16877 -1.76033,-2.32918c-0.59515,-1.63843 -0.16133,-3.85648 0.43261,-5.45548c0.15535,-0.41947 0.5079,-1.57151 0.72541,-1.85474c0.41588,-0.54375 1.85235,-0.8975 2.46064,-1.09946c-0.22467,0.63338 -0.74572,0.89151 -1.18552,1.34086c-0.58796,0.59873 -0.66207,1.08273 -0.82221,1.90255c-0.27607,1.41853 -0.94529,3.47765 -0.27247,4.88901c0.40033,0.83893 2.16905,1.65755 3.01754,1.83442c1.40181,0.29159 3.43104,-0.73616 4.78983,-1.0875v0.25215z"/>
                <path d="M217.28456,230.29247c0.12908,-0.50073 -0.03704,-1.0672 0.37047,-1.63843c0.1912,0.61187 0.35134,1.12575 0.51269,1.63843h-0.88197z"/>
                <path d="M246.07366,149.49889c-0.04781,0.71226 -2.69606,2.17264 -3.29241,2.31484c-1.58942,0.37884 -3.32705,0.45532 -4.94517,0.77081c-0.56527,0.10995 -1.72806,0.08724 -2.05432,0.6047c-0.27128,0.43024 0.08245,1.80454 0.11592,2.30647c0.05976,0.89868 0.1016,1.79857 0.16733,2.69607c0.0729,0.98234 -0.01077,1.18551 0.99547,1.27395c1.64919,0.14461 3.39638,-0.3131 5.05751,-0.29039c1.76153,0.02391 3.49197,0.58797 5.24633,0.75646c1.71491,0.16492 3.50035,0.20674 5.20929,-0.0478c1.66711,-0.24857 3.4155,-1.08273 5.11489,-1.02657c0.13265,0.66804 -5.63952,1.67788 -6.28844,1.80934c-0.92378,0.18644 -1.49741,0.3633 -1.9336,1.24645c-0.49835,1.00863 -0.19002,2.21087 -0.57005,3.18604c-0.68955,-0.37285 -2.27421,-0.82937 -2.30767,-1.63007c-0.01792,-0.43024 1.31219,-1.89418 1.53686,-2.35428c-2.55983,-1.44364 -5.78413,-1.43766 -8.62121,-1.33966c-0.95605,0.03346 -2.78688,-0.32983 -3.30675,0.71586c-0.55092,1.10782 0.81743,1.87505 0.9931,2.85023c-0.7732,0 -1.92645,-0.16851 -2.52518,0.46607c-0.6262,0.66326 -0.46727,2.02323 -0.35972,2.84186c0.12429,0.94649 0.42784,1.84758 0.84492,2.70563c0.55092,1.13173 0.67282,1.09228 0.26531,2.18817c0.27846,0.39676 0.70628,-0.0466 1.05525,0.26053c-1.15921,2.43673 12.24224,6.28007 14.06592,6.70313c-0.1912,1.26797 -9.73022,-1.1126 -10.84162,-1.57629c-1.61213,-0.67282 -2.80363,-1.83562 -4.62849,-1.9145c-1.78184,-0.07649 -3.9485,0.10396 -5.67297,0.54853c1.84758,-1.06002 3.81225,-1.77347 5.97174,-2.15232c-1.20583,-1.41853 -2.12244,-3.17649 -3.00798,-4.80775c-0.32028,-0.58918 -0.93214,-1.37671 -0.92736,-2.05551c0.00598,-0.81742 0.75169,-1.84519 0.96919,-2.65782c0.20555,-0.76963 0.24498,-1.60617 0.58677,-2.33276c0.37046,-0.78874 0.71465,-1.32771 0.80787,-2.22401c0.1195,-1.15684 0.06573,-2.33277 0.07052,-3.49199c0.00478,-0.94649 0.3406,-2.39132 0.00239,-3.29121c-0.2629,-0.70269 -0.97997,-1.24526 -1.27155,-1.98501c-0.32148,-0.81264 -0.42425,-1.67668 -0.52703,-2.53832c-0.245,-2.04715 -0.37047,-4.10863 -0.5545,-6.16295c-0.19957,-2.24075 -0.29519,-4.30702 -0.16612,-6.55134c0.05378,-0.92379 0.21749,-2.00412 0.07409,-2.91117c-0.147,-0.92737 -0.99189,-1.56793 -1.15085,-2.47618c0.61545,-0.14103 1.68026,2.2981 1.97663,2.6841c0.67282,0.87479 1.70536,1.46037 2.6399,2.06986c2.13677,1.39225 4.35362,2.68411 6.51669,4.0429c2.21446,1.39105 4.45878,2.72595 6.68639,4.09669c0.85925,0.52822 2.09733,1.73524 3.08087,1.92525c0.95007,0.18404 2.9554,-0.52463 3.93894,-0.72181c-0.02389,0.46248 -2.3746,1.10066 -2.86577,1.36596c-1.10782,0.59635 -2.14634,1.32414 -3.34618,1.73404c0.52584,-1.62529 2.89207,-1.16401 0.75289,-2.74627c-1.60138,-1.1855 -3.29599,-2.23119 -4.99537,-3.2697c-1.72329,-1.05286 -3.42029,-2.14634 -5.13998,-3.20397c-0.48759,-0.29996 -3.42506,-2.53233 -4.03573,-2.07583c-0.4852,0.36211 0.71823,4.49224 0.83415,5.11606c0.38959,2.09973 0.74452,4.21022 1.23927,6.28844c0.37167,1.55956 0.57005,3.49436 2.45228,3.86125c1.61932,0.31549 3.80269,-1.00863 5.3013,-1.53565c0.23663,-0.08365 0.48997,-0.2677 0.76485,-0.05976z"/>
                <path d="M270.59757,183.85462c0.38123,1.78781 0.245,3.58639 0.33343,5.5224c2.8813,-1.81171 4.81013,-4.77071 7.1656,-7.1919c1.16518,-1.19867 2.38774,-2.34352 3.5135,-3.58042c1.02296,-1.12456 1.71731,-3.00916 2.91596,-3.90427c0.13982,0.59035 -1.19746,2.37937 -1.52011,2.86816c-0.59872,0.90467 -1.38149,1.63843 -2.15829,2.38893c-1.73046,1.6707 -2.34472,3.67365 -2.61361,6.0327c-0.29997,2.63393 -0.35852,5.28816 -0.69313,7.91969c-0.1948,1.5249 -0.16732,1.81889 1.17595,2.67336c0.42544,0.27128 0.84729,0.66923 1.35999,0.75169c0.58199,0.09321 1.20463,-0.40514 1.82965,-0.32864c-0.24737,1.21896 -0.81385,2.3471 -1.80575,3.12629c-1.11978,0.87958 -1.59063,0.2916 -2.84067,-0.0478c-1.72089,-0.46847 -2.45706,0.28562 -3.6091,1.57988c-0.78636,0.88315 -1.37313,2.08062 -2.68291,2.21924c-1.1162,0.11712 -2.50247,-0.43619 -3.66646,-0.53419c-1.21299,-0.10158 -3.01515,-0.94171 -4.00705,-0.22825c-1.94916,1.40183 -2.25389,5.44711 -5.45188,4.95953c3.65809,-2.16546 5.49012,-6.53104 7.82529,-9.89633c1.21179,-1.746 2.12721,-3.43939 2.90999,-5.41843c0.86642,-2.19294 1.09109,-4.42772 1.60259,-6.71029c0.16372,-0.7278 0.27845,-1.46754 0.41588,-2.2013zM276.41996,187.06696c-0.36449,-0.01433 -0.46847,0.1936 -0.62263,0.32626c-2.05074,1.75913 -5.38137,3.46091 -6.50114,5.97055c-0.60589,1.35761 -1.58945,2.6841 -2.01488,4.10862c-0.36929,1.2357 0.13622,1.65877 1.29424,2.13321c2.84425,1.16638 5.29176,-1.36715 6.67922,-3.63539c1.58346,-2.58971 1.56673,-5.99565 1.16519,-8.90324z"/>
                <path d="M237.67235,217.6415c0.24022,-0.5366 3.02232,-0.50312 3.67721,-0.64175c1.56075,-0.33104 3.0737,-0.83654 4.58905,-1.32891c1.24286,-0.40393 2.59807,-0.59276 3.73936,-1.23092c1.13889,-0.63577 2.06628,-1.61572 3.34858,-1.99576c0.32387,0.3621 -0.94888,1.57629 -1.18551,1.91689c-0.76245,1.09825 -0.22706,1.37552 0.61187,2.35308c1.45201,1.69221 3.25177,3.00798 4.70497,4.68586c-2.93029,-1.30023 -4.54602,-4.48149 -8.09895,-4.46357c-3.59596,0.01792 -7.27077,0.53779 -10.86313,0.78397c-0.1709,0.01196 -0.36929,0.11234 -0.52344,-0.08008z"/>
                <path d="M246.31268,164.3177c0.6501,0.1912 1.44005,0.41349 2.01128,0.78874c0.73975,0.4852 0.59514,0.42902 0.58319,1.29425c-0.02271,1.61812 0.78038,2.84187 1.52969,4.21261c0.90825,1.66234 -0.7015,1.98021 -1.83563,0.87478c-0.48759,-0.47443 -2.45944,-2.71518 -1.22971,-2.99961c-1.06719,0.04182 -1.18431,-0.74094 -1.23568,-1.4018c-0.06931,-0.88315 -0.13981,-1.79499 0.17926,-2.76778z"/>
                <path d="M263.91718,144.62184c1.11978,1.0421 2.71758,1.39703 3.61149,2.89564c-2.83708,-1.07675 -5.04199,-3.30195 -8.1336,-3.46688c0.88792,-0.56048 2.19294,0.32505 3.1478,0.2163c0.93334,-0.10636 1.29665,-0.78277 1.87506,-1.45559c2.01368,-2.34233 4.70737,-4.20902 7.05566,-6.20597c0.60231,-0.51269 1.23808,-0.91542 1.88104,-1.36835c0.53659,-0.37765 1.03254,-1.00744 1.60139,-1.31218c0.33222,-0.17808 0.73616,-0.64533 0.84491,0.1183c0.05257,0.36808 -1.17712,1.13054 -1.38866,1.3086c-2.57178,2.16546 -5.15433,4.33331 -7.65919,6.57525c-0.96442,0.86404 -2.00054,1.64201 -2.8359,2.69127z"/>
                <path d="M271.88111,218.30835c0.25216,2.72714 -2.05312,4.93921 -3.94252,6.51908c-0.89271,0.74572 -1.27992,1.13293 -2.47021,1.19387c-0.67522,0.03466 -1.31575,0.01194 -1.96468,0.24976c-0.46368,0.1697 -0.90107,0.66327 -1.40539,0.52224c2.81079,-2.518 7.68306,-3.0259 9.20558,-7.04372c0.1685,-0.44337 0.1458,-0.95606 0.57603,-1.43886z"/>
                <path d="M227.91825,226.66305c-2.6889,-1.72927 -5.34193,-1.09826 -8.05831,-0.45294c0.76127,-0.46249 1.73165,-0.81624 2.22879,-1.57988c0.5079,-0.78037 0.56527,-1.78542 1.04807,-2.5909c0.27606,0.77201 -0.37046,2.21207 0.34418,2.72594c0.35493,0.25574 1.04927,0.03705 1.47591,0.08724c0.71464,0.08486 1.37432,0.3884 2.05551,0.60112c0.48879,0.15177 0.73496,0.57483 0.90586,1.2106z"/>
                <path d="M270.00602,147.9489c0.9943,0.56886 2.2288,1.02894 3.15855,1.63843c0.82938,0.54375 0.86642,1.39345 1.34564,2.40686c-0.52584,-0.04422 -1.80932,-0.049 -2.22998,-0.40632c-0.3872,-0.32864 -0.25455,-0.56766 -0.42305,-1.05047c-0.3836,-1.09707 -1.26917,-1.54761 -1.95752,-2.40447c0.03586,-0.06096 0.0717,-0.12189 0.10756,-0.18403z"/>
                <path d="M197.51938,194.30427c2.11049,1.15324 3.87798,0.84493 5.33955,-0.95006c0.39078,0.61545 -0.67402,1.48186 -0.41946,2.36263c0.29159,1.00863 1.43408,2.16068 2.0352,3.01993c-0.77082,0.15895 -1.80694,-1.7663 -2.26585,-2.28496c-0.9441,-1.0672 -1.71731,-0.85088 -3.09163,-0.87956c-0.65251,-0.01314 -1.354,-0.52822 -1.59779,-1.26797z"/>
                <path d="M256.3799,226.19937c0.15893,0.631 -0.60111,2.28498 -0.90347,2.86099c-0.36929,0.70269 -1.08512,1.1126 -1.96111,0.7003c1.05882,-1.14009 1.81171,-2.46064 2.86458,-3.56129z"/>
                <path d="M271.36721,159.55417c1.42691,0.12189 1.75435,0.47565 1.83443,1.8894c-0.77201,-0.48041 -1.17595,-1.19626 -1.83443,-1.8894z"/>
            </g>
            <g fill="#272727" stroke="#272727" stroke-width="0.5" stroke-miterlimit="10" stroke-dasharray="" stroke-dashoffset="0">
                <path d="M253.02802,168.33658c0.08839,0.34439 -3.52027,0.4724 -4.14178,0.50818c-1.6987,0.09902 -3.39741,0.21233 -5.08895,0.40559c-0.85651,0.09781 -1.70824,0.22903 -2.56594,0.3197c-0.73005,0.07636 -1.65577,-0.03221 -2.32856,0.2529c-0.64298,0.27199 -1.2442,0.8601 -1.81084,1.2633c-0.29943,0.21234 -1.30982,1.20124 -1.66648,1.10462c-0.71098,-0.19444 -0.29465,-0.75751 0.05726,-0.98772c0.69666,-0.45568 1.40644,-0.89348 2.10429,-1.34799c1.41598,-0.92212 3.14212,-0.90304 4.80384,-1.0784c1.72853,-0.1825 3.44991,-0.44018 5.18916,-0.48432c1.75357,-0.04414 3.7622,0.00155 4.21073,-0.01109c0.32591,0.00728 1.24517,-0.10664 1.23729,0.05524z"/>
                <path d="M252.45185,170.72479c0.16354,-0.08757 0.50603,0.22391 0.40917,0.37696c-0.43805,0.42682 -4.712,2.53613 -7.09542,3.44751c-1.15235,0.44019 -2.30352,0.96388 -3.48211,1.32772c-0.5225,0.16103 -3.47017,1.1082 -3.75646,0.59406c0.34117,-0.33283 0.97699,-0.37337 1.41837,-0.49982c0.48313,-0.13837 0.96386,-0.2851 1.4458,-0.42945c1.02828,-0.30897 2.01125,-0.69666 3.00971,-1.08913c2.02556,-0.79686 4.17756,-1.46131 6.04925,-2.5898c0.65491,-0.39486 1.86069,-1.06252 2.0017,-1.13804z"/>
                <path d="M287.63192,167.84034c-0.02123,0.47585 -2.5409,0.73125 -3.59901,0.87082c-1.50664,0.19921 -3.04429,0.24932 -4.56286,0.2362c-1.4804,-0.01193 -2.962,-0.08709 -4.44119,-0.00835c-1.12729,0.05964 -3.7629,0.36049 -4.04994,-0.12645c-0.16439,-0.15639 4.92314,-0.42945 7.36741,-0.42587c2.55879,0.00358 5.05793,0.06799 7.58451,-0.38769c0.54755,-0.09902 1.71802,-0.44388 1.7011,-0.15866z"/>
                <path d="M271.11252,166.40884c-0.20948,-0.20602 2.12696,-0.59169 3.02283,-0.81594c1.2454,-0.31016 2.50153,-0.56187 3.77675,-0.7086c1.18574,-0.13719 2.36197,-0.33879 3.54653,-0.47716c0.60361,-0.07038 1.20484,-0.14911 1.80487,-0.24574c0.303,-0.04891 1.25614,-0.37339 1.54361,-0.1682c0.36431,0.38197 -2.01959,0.91258 -2.81049,1.04021c-1.17264,0.18848 -2.35838,0.24693 -3.53341,0.41513c-2.34765,0.33523 -4.70363,0.60839 -7.03458,1.04977c-0.11212,0.02147 -0.22547,0.06919 -0.31493,-0.08829z"/>
                <path d="M277.95862,154.38551c0.34403,-0.04068 -0.79686,2.02317 -1.04976,2.47767c-0.48908,0.87919 -0.9579,1.76789 -1.43268,2.65421c-0.80283,1.50188 -1.50427,3.56919 -3.17791,4.30521c-0.29823,0.13121 -0.52844,0.24693 -0.44973,-0.17893c0.05129,-0.27558 0.87202,-0.80401 1.09868,-1.00442c0.75274,-0.66565 1.13326,-1.56629 1.62236,-2.44189c1.02233,-1.82992 2.32499,-3.60736 3.16001,-5.52914c0.04415,-0.10139 0.07156,-0.22188 0.22783,-0.28271z"/>
                <path d="M252.70713,167.17707c-0.08899,0.26649 -1.4637,-0.44853 -1.92178,-0.66683c-0.76823,-0.36622 -1.58538,-0.64178 -2.37748,-0.95194c-1.63906,-0.64417 -3.14571,-1.42075 -4.93625,-1.47682c-1.82516,-0.05846 -3.65149,-0.07037 -5.47665,-0.09425c-1.85259,-0.02385 -5.19236,0.92844 -5.16052,0.76942c-0.06562,-0.31492 1.56736,-1.0445 1.86451,-1.1416c0.66517,-0.21723 1.4983,-0.28988 2.33333,-0.28035c1.96831,0.02028 3.9378,0.04295 5.90608,0.05369c0.86247,0.00477 1.77745,-0.0847 2.62321,0.11691c0.79328,0.18967 1.47562,0.64536 2.18779,1.02112c1.56152,0.82431 3.05277,1.57322 4.19165,2.13889c0.20268,0.10068 0.80724,0.38841 0.76609,0.51176z"/>
            </g>
        </g>
    </g>
</svg>